<?xml version="1.0" encoding="UTF-8"?>
<svg id="Layer_1" data-name="Layer 1" xmlns="http://www.w3.org/2000/svg" viewBox="0 0 155.86 157.13">
  <defs>
    <style>
      .cls-1 {
        fill: #4b3205;
      }
    </style>
  </defs>
  <g>
    <path class="cls-1" d="m141.22,52.76c-6.23-.09-8.84-5.97-5.59-11.13,2.73-4.33,8.92-4.94,13.35-3.42,5.71,1.95,8.21,8.57,6.18,14.01-2.03,5.44-8.46,8.59-13.95,8.83-6.19.27-12.56-1.51-17.32-5.56-5.9-5.03-6.74-14.46-5.82-21.6,1.85-14.24,13.45-23,27.16-24.61,2.57-.3.94,1.46-.67,1.65-9.71,1.13-18.35,7.2-21.48,16.66-3.26,9.86-2.29,23.43,7.62,29.05,4.41,2.5,10.75,3.86,15.48,1.66,4.57-2.12,6.63-7.07,5.72-11.81-.8-4.16-6.04-8.94-10.53-7.04-5.03,2.13-4.72,11.53,1.43,11.61,2.46.03-.44,1.71-1.59,1.69h0Z"/>
    <path class="cls-1" d="m103.04,14.64c.08,6.23,5.97,8.84,11.13,5.59,4.33-2.73,4.94-8.92,3.42-13.35-1.95-5.7-8.57-8.21-14.01-6.19-5.44,2.03-8.59,8.46-8.83,13.95-.27,6.18,1.5,12.56,5.56,17.31,5.03,5.9,14.46,6.74,21.6,5.82,14.24-1.85,23-13.46,24.6-27.16.3-2.57-1.46-.94-1.65.67-1.13,9.71-7.2,18.35-16.66,21.48-9.86,3.26-23.43,2.29-29.05-7.62-2.5-4.41-3.86-10.75-1.66-15.48,2.12-4.57,7.07-6.63,11.81-5.71,4.16.8,8.94,6.04,7.04,10.53-2.13,5.03-11.53,4.72-11.61-1.43-.03-2.45-1.71.44-1.69,1.59h0Z"/>
    <path class="cls-1" d="m1.04,8.88s25.58-1.16,34.64-1.16c9.78,0,20.14.51,29.42,2.54,9.98,2.19,18.69.58,26.35-4.05,2.42-1.46,2.02-2.62-.55-1.79-6.12,2.47-15.92,3.13-25.84,2.44-9.49-.66-20.93-1.19-29.98-.81C26.03,6.44.98,7.51.98,7.51c-1.21.05-1.41,1.43.06,1.37Z"/>
    <path class="cls-1" d="m50.18,15.3c-3.27-1.39-7.2-2.48-16.98-2.7-9.06-.21-32.18.39-32.18.39-1.47.03-1.24-1.34-.03-1.37,0,0,22.58-.51,31.64-.69,9.06-.18,19.14.95,24.27,2.65.93.31.49.8-.97,1.42-1.45.62-3.27,1.37-5.76.3Z"/>
    <path class="cls-1" d="m139,106.95c1.39,3.27,2.48,7.21,2.7,16.98.21,9.06-.39,32.18-.39,32.18-.03,1.47,1.34,1.24,1.37.03,0,0,.51-22.58.69-31.64.18-9.06-.95-19.14-2.65-24.27-.31-.93-.8-.49-1.42.97-.62,1.45-1.37,3.27-.3,5.76Z"/>
  </g>
  <path class="cls-1" d="m81.86,42.87c3.04-4.31.45-9.15-4.59-9.6-4.23-.38-7.71,3.55-8.91,7.37-1.55,4.92,1.58,10.07,6.2,11.5,4.62,1.43,9.9-1.34,12.79-4.98,3.26-4.1,5.26-9.39,4.94-14.74-.39-6.65-6.22-12.12-11.41-15.18-10.35-6.12-21.93-2.71-29.82,5.85-1.48,1.61.5,1.4,1.42.4,5.59-6.07,13.9-8.84,21.73-6.08,8.15,2.88,16.66,10.58,15.44,20.29-.54,4.32-2.79,9.37-6.61,11.46-3.68,2.03-7.98.88-10.66-2.21-2.36-2.7-2.91-8.77.58-10.87,3.91-2.34,9.98,2.75,6.98,7-1.2,1.7,1.35.59,1.91-.21h0Z"/>
  <path class="cls-1" d="m145.64,156.01s1.16-25.58,1.16-34.64c0-9.78-.51-20.14-2.54-29.42-2.19-9.98-.58-18.69,4.05-26.35,1.46-2.42,2.62-2.02,1.8.55-2.47,6.12-3.13,15.92-2.44,25.84.66,9.48,1.19,20.93.81,29.98-.39,9.05-1.45,34.1-1.45,34.1-.05,1.21-1.43,1.41-1.37-.06Z"/>
  <path class="cls-1" d="m111.65,75.19c4.31-3.04,9.15-.45,9.6,4.59.38,4.23-3.55,7.71-7.37,8.91-4.92,1.55-10.07-1.58-11.5-6.2-1.43-4.62,1.34-9.9,4.98-12.79,4.1-3.26,9.38-5.26,14.74-4.94,6.65.39,12.12,6.22,15.18,11.41,6.12,10.35,2.71,21.93-5.85,29.82-1.61,1.48-1.4-.5-.4-1.42,6.06-5.59,8.84-13.91,6.07-21.73-2.88-8.15-10.58-16.66-20.29-15.44-4.32.54-9.36,2.79-11.47,6.61-2.02,3.68-.87,7.98,2.21,10.66,2.7,2.36,8.77,2.92,10.87-.58,2.34-3.91-2.75-9.98-7-6.98-1.7,1.2-.58-1.35.21-1.91h0Z"/>
</svg>